<?xml version="1.0" standalone="no"?>
<!DOCTYPE svg PUBLIC "-//W3C//DTD SVG 20010904//EN"
 "http://www.w3.org/TR/2001/REC-SVG-20010904/DTD/svg10.dtd">
<svg version="1.0" xmlns="http://www.w3.org/2000/svg"
 width="136.000000pt" height="91.000000pt" viewBox="0 0 136.000000 91.000000"
 preserveAspectRatio="xMidYMid meet">

<g transform="translate(0.000000,91.000000) scale(0.100000,-0.100000)"
fill="#000000" stroke="none">
<path d="M652 830 c-50 -11 -125 -50 -177 -93 -51 -42 -130 -165 -151 -235
-22 -72 -23 -185 -2 -233 53 -121 193 -189 393 -189 209 0 350 66 403 189 21
48 20 161 -2 233 -21 71 -100 193 -152 236 -91 76 -214 112 -312 92z m195 -55
c142 -63 253 -237 255 -398 1 -163 -117 -253 -352 -264 -200 -10 -357 58 -401
174 -19 50 -12 154 15 227 88 233 295 344 483 261z"/>
<path d="M577 542 c-21 -23 -22 -52 -2 -52 8 0 15 7 15 15 0 27 31 30 50 5 22
-29 45 -19 29 13 -22 41 -64 50 -92 19z"/>
<path d="M786 544 c-18 -17 -22 -54 -6 -54 5 0 14 9 20 20 6 11 17 20 25 20 8
0 19 -9 25 -20 14 -25 30 -26 30 -1 0 27 -26 51 -55 51 -13 0 -31 -7 -39 -16z"/>
<path d="M537 444 c-9 -9 3 -64 24 -106 56 -112 243 -120 309 -13 29 47 43
107 27 117 -14 9 -351 11 -360 2z"/>
</g>
</svg>
